<?xml version="1.0" encoding="UTF-8" standalone="no"?>
<!-- Created with Inkscape (http://www.inkscape.org/) -->
<svg
   xmlns:dc="http://purl.org/dc/elements/1.1/"
   xmlns:cc="http://web.resource.org/cc/"
   xmlns:rdf="http://www.w3.org/1999/02/22-rdf-syntax-ns#"
   xmlns:svg="http://www.w3.org/2000/svg"
   xmlns="http://www.w3.org/2000/svg"
   xmlns:sodipodi="http://sodipodi.sourceforge.net/DTD/sodipodi-0.dtd"
   xmlns:inkscape="http://www.inkscape.org/namespaces/inkscape"
   width="744.09448819"
   height="1052.3622047"
   id="svg2"
   sodipodi:version="0.32"
   inkscape:version="0.45.1"
   sodipodi:docbase="C:\rails\ppm\public\images"
   sodipodi:docname="pawprint.svg"
   inkscape:output_extension="org.inkscape.output.svg.inkscape">
  <defs
     id="defs4" />
  <sodipodi:namedview
     id="base"
     pagecolor="#ffffff"
     bordercolor="#666666"
     borderopacity="1.0"
     gridtolerance="10000"
     guidetolerance="10"
     objecttolerance="10"
     inkscape:pageopacity="0.0"
     inkscape:pageshadow="2"
     inkscape:zoom="1.4326138"
     inkscape:cx="372.04724"
     inkscape:cy="260.81559"
     inkscape:document-units="px"
     inkscape:current-layer="layer1"
     inkscape:window-width="1134"
     inkscape:window-height="1008"
     inkscape:window-x="0"
     inkscape:window-y="0" />
  <metadata
     id="metadata7">
    <rdf:RDF>
      <cc:Work
         rdf:about="">
        <dc:format>image/svg+xml</dc:format>
        <dc:type
           rdf:resource="http://purl.org/dc/dcmitype/StillImage" />
      </cc:Work>
    </rdf:RDF>
  </metadata>
  <g
     inkscape:label="Layer 1"
     inkscape:groupmode="layer"
     id="layer1">
    <path
       style="fill:#000000"
       d=""
       id="path2221" />
    <g
       id="g4112"
       inkscape:export-filename="C:\rails\ppm\public\images\pawprints.png"
       inkscape:export-xdpi="22.5"
       inkscape:export-ydpi="22.5">
      <path
         sodipodi:nodetypes="csssssccsssccssssccssssccssc"
         id="path2223"
         d="M 20.089118,1051.3512 C 16.182078,1050.2335 11.144778,1047.1863 7.0820076,1043.4829 C 0.78783756,1037.7453 0.50159756,1037.1757 1.4407676,1032.2565 C 1.9849376,1029.4063 3.0443176,1026.3467 3.7949676,1025.4573 C 6.0260176,1022.814 24.349398,1014.1703 27.721868,1014.1703 C 36.979468,1014.1703 43.760068,1038.5701 36.881308,1047.1303 C 32.777448,1052.2372 27.672438,1053.5204 20.089118,1051.3512 z M 43.348628,1033.6396 C 38.942858,1029.3269 49.613558,1015.5286 57.354468,1015.5286 C 59.640418,1015.5286 62.156278,1016.2927 62.945278,1017.2265 C 67.285418,1022.3635 57.371678,1034.5451 48.850918,1034.5451 C 46.333468,1034.5451 43.857428,1034.1376 43.348628,1033.6396 z M 37.913678,1018.1365 C 34.034808,1015.925 34.852148,1008.6419 39.716928,1002.0682 C 43.373008,997.12772 44.552568,996.40723 48.389708,996.77065 C 52.315218,997.14245 52.882778,997.72253 53.277968,1001.7669 C 53.845388,1007.5737 51.351088,1013.5098 46.905318,1016.933 C 43.015668,1019.9279 41.428448,1020.1404 37.913678,1018.1365 z M 3.7805576,1015.7353 C 0.62098756,1012.6425 -1.0546624,1003.3096 0.72634756,998.72416 C 1.8616776,995.80112 5.9038776,992.43715 8.2809176,992.43715 C 8.6829776,992.43715 10.285128,993.77489 11.841268,995.40992 C 15.802698,999.57216 15.835208,1011.672 11.895318,1015.5286 C 8.4600576,1018.8913 7.0415976,1018.9274 3.7805576,1015.7353 z M 20.502668,1011.1065 C 14.582058,1004.1233 20.828818,988.36219 29.517138,988.36219 C 36.782728,988.36219 36.818378,1002.4426 29.569548,1009.0709 C 25.081478,1013.1748 22.708048,1013.7077 20.502668,1011.1065 z "
         style="fill:#ffeeee;fill-opacity:1" />
      <path
         style="fill:#ffeeee;fill-opacity:1"
         d="M 235.91088,923.3512 C 239.81792,922.2335 244.85522,919.1863 248.91799,915.4829 C 255.21216,909.7453 255.4984,909.1757 254.55923,904.2565 C 254.01506,901.4063 252.95568,898.3467 252.20503,897.4573 C 249.97398,894.814 231.6506,886.1703 228.27813,886.1703 C 219.02053,886.1703 212.23993,910.5701 219.11869,919.1303 C 223.22255,924.2372 228.32756,925.5204 235.91088,923.3512 z M 212.65137,905.6396 C 217.05714,901.3269 206.38644,887.5286 198.64553,887.5286 C 196.35958,887.5286 193.84372,888.2927 193.05472,889.2265 C 188.71458,894.3635 198.62832,906.5451 207.14908,906.5451 C 209.66653,906.5451 212.14257,906.1376 212.65137,905.6396 z M 218.08632,890.1365 C 221.96519,887.925 221.14785,880.6419 216.28307,874.0682 C 212.62699,869.12772 211.44743,868.40723 207.61029,868.77065 C 203.68478,869.14245 203.11722,869.72253 202.72203,873.7669 C 202.15461,879.5737 204.64891,885.5098 209.09468,888.933 C 212.98433,891.9279 214.57155,892.1404 218.08632,890.1365 z M 252.21944,887.7353 C 255.37901,884.6425 257.05466,875.3096 255.27365,870.72416 C 254.13832,867.80112 250.09612,864.43715 247.71908,864.43715 C 247.31702,864.43715 245.71487,865.77489 244.15873,867.40992 C 240.1973,871.57216 240.16479,883.672 244.10468,887.5286 C 247.53994,890.8913 248.9584,890.9274 252.21944,887.7353 z M 235.49733,883.1065 C 241.41794,876.1233 235.17118,860.36219 226.48286,860.36219 C 219.21727,860.36219 219.18162,874.4426 226.43045,881.0709 C 230.91852,885.1748 233.29195,885.7077 235.49733,883.1065 z "
         id="path4184"
         sodipodi:nodetypes="csssssccsssccssssccssssccssc" />
      <path
         sodipodi:nodetypes="csssssccsssccssssccssssccssc"
         id="path4198"
         d="M 363.91088,795.3512 C 367.81792,794.2335 372.85522,791.1863 376.91799,787.4829 C 383.21216,781.7453 383.4984,781.1757 382.55923,776.2565 C 382.01506,773.4063 380.95568,770.3467 380.20503,769.4573 C 377.97398,766.814 359.6506,758.1703 356.27813,758.1703 C 347.02053,758.1703 340.23993,782.5701 347.11869,791.1303 C 351.22255,796.2372 356.32756,797.5204 363.91088,795.3512 z M 340.65137,777.6396 C 345.05714,773.3269 334.38644,759.5286 326.64553,759.5286 C 324.35958,759.5286 321.84372,760.2927 321.05472,761.2265 C 316.71458,766.3635 326.62832,778.5451 335.14908,778.5451 C 337.66653,778.5451 340.14257,778.1376 340.65137,777.6396 z M 346.08632,762.1365 C 349.96519,759.925 349.14785,752.6419 344.28307,746.0682 C 340.62699,741.12772 339.44743,740.40723 335.61029,740.77065 C 331.68478,741.14245 331.11722,741.72253 330.72203,745.7669 C 330.15461,751.5737 332.64891,757.5098 337.09468,760.933 C 340.98433,763.9279 342.57155,764.1404 346.08632,762.1365 z M 380.21944,759.7353 C 383.37901,756.6425 385.05466,747.3096 383.27365,742.72416 C 382.13832,739.80112 378.09612,736.43715 375.71908,736.43715 C 375.31702,736.43715 373.71487,737.77489 372.15873,739.40992 C 368.1973,743.57216 368.16479,755.672 372.10468,759.5286 C 375.53994,762.8913 376.9584,762.9274 380.21944,759.7353 z M 363.49733,755.1065 C 369.41794,748.1233 363.17118,732.36219 354.48286,732.36219 C 347.21727,732.36219 347.18162,746.4426 354.43045,753.0709 C 358.91852,757.1748 361.29195,757.7077 363.49733,755.1065 z "
         style="fill:none;fill-opacity:1;stroke:none" />
    </g>
    <path
       style="fill:#ec5388;fill-opacity:1"
       d="M 20.089118,731.3512 C 16.182078,730.2335 11.144778,727.1863 7.0820076,723.4829 C 0.78783757,717.7453 0.50159757,717.1757 1.4407676,712.2565 C 1.9849376,709.4063 3.0443176,706.3467 3.7949676,705.4573 C 6.0260176,702.814 24.349398,694.1703 27.721868,694.1703 C 36.979468,694.1703 43.760068,718.5701 36.881308,727.1303 C 32.777448,732.2372 27.672438,733.5204 20.089118,731.3512 z M 43.348628,713.6396 C 38.942858,709.3269 49.613558,695.5286 57.354468,695.5286 C 59.640418,695.5286 62.156278,696.2927 62.945278,697.2265 C 67.285418,702.3635 57.371678,714.5451 48.850918,714.5451 C 46.333468,714.5451 43.857428,714.1376 43.348628,713.6396 z M 37.913678,698.1365 C 34.034808,695.925 34.852148,688.6419 39.716928,682.0682 C 43.373008,677.12772 44.552568,676.40723 48.389708,676.77065 C 52.315218,677.14245 52.882778,677.72253 53.277968,681.7669 C 53.845388,687.5737 51.351088,693.5098 46.905318,696.933 C 43.015668,699.9279 41.428448,700.1404 37.913678,698.1365 z M 3.7805576,695.7353 C 0.62098757,692.6425 -1.0546624,683.3096 0.72634757,678.72416 C 1.8616776,675.80112 5.9038776,672.43715 8.2809176,672.43715 C 8.6829776,672.43715 10.285128,673.77489 11.841268,675.40992 C 15.802698,679.57216 15.835208,691.672 11.895318,695.5286 C 8.4600576,698.8913 7.0415976,698.9274 3.7805576,695.7353 z M 20.502668,691.1065 C 14.582058,684.1233 20.828818,668.36219 29.517138,668.36219 C 36.782728,668.36219 36.818378,682.4426 29.569548,689.0709 C 25.081478,693.1748 22.708048,693.7077 20.502668,691.1065 z "
       id="path2165"
       sodipodi:nodetypes="csssssccsssccssssccssssccssc"
       inkscape:export-filename="D:\rails\ppm\public\images\paw_bullet.png"
       inkscape:export-xdpi="22.5"
       inkscape:export-ydpi="22.5" />
  </g>
</svg>
